<?xml version="1.0" encoding="utf-8"?>
<!-- Generator: Adobe Illustrator 27.1.1, SVG Export Plug-In . SVG Version: 6.00 Build 0)  -->
<svg version="1.1" id="Layer_1" xmlns="http://www.w3.org/2000/svg" xmlns:xlink="http://www.w3.org/1999/xlink" x="0px" y="0px"
	 viewBox="0 0 1000 1000" style="enable-background:new 0 0 1000 1000;" xml:space="preserve">
<style type="text/css">
	.st0{fill:#1D1D1B;}
</style>
<g>
	<g>
		<g>
			<g>
				<path class="st0" d="M242.7,258c1.4-1.4,3.6-1.4,5,0c1.4,1.3,1.4,3.6,0,5c-1.3,1.4-3.6,1.3-5,0
					C241.4,261.6,241.4,259.4,242.7,258z M296.8,328.9c-0.2-0.2,0-0.4,0.2-0.5c1.5-0.4,2.8-1.1,3.9-2.1c2.8-2.8,1.9-6.3-2.4-10.5
					l-37.1-36.6c-1.7-1.7-3.9-0.7-4.7,0.1c-0.3,0.3-0.8,0.1-0.3-0.5c1.7-2.1,1.8-6.6,1.5-10.5l44.3,43.7c4.7,4.6,4.5,10.5,1.4,13.9
					c-1.5,1.5-3.6,2.7-6.2,3C297.2,328.9,297,329,296.8,328.9z"/>
				<path class="st0" d="M289.3,241.8c6.5-5.1,18.5-7.4,28,2.1c0.5,0.5,0.2,1.1-0.4,1.5l-29.6,23.2c0.5,0.8,1.2,1.6,1.8,2.5
					c8.7,11.1,21.3,15.4,31.3,7.5c4.8-3.7,7.5-9.5,6.9-17.1c-0.2-1.9-0.3-2.2,0.3-2.4c0.6-0.2,0.8,0.4,0.9,1.8
					c0.7,8.2-2,15.3-8.7,20.6c-10.7,8.4-24.8,6.3-34.2-5.7C276.5,263.9,278.8,250.1,289.3,241.8z M313.5,246.7
					c-8.3-8.6-17.2-9.3-24.3-3.7c-7.9,6.1-7.7,15.8-2.4,24.6L313.5,246.7z"/>
				<path class="st0" d="M339.8,251.1c0.7-0.6,1.4-0.5,1.6,0.2c3.7,8,11.1,7.5,17.2,4.1c6.9-3.8,10.3-10.6,7.5-15.8
					c-2.4-4.4-7.4-5-19.7-3.8c-8.4,0.8-17.3,1.6-20.8-4.9c-3.6-6.7,0.9-14.3,8.3-18.3c4.9-2.6,11.6-4.5,16.5-3.3c4,1,3.1,5,1.1,6.6
					c-0.8,0.6-1.3,0.5-1.7-0.2c-3.2-5.1-9.6-5.6-15.2-2.5c-5.4,2.9-10.1,8.3-7.3,13.5c3.3,6.1,11.3,4.6,19.9,3.9
					c11.5-0.9,18.5-1.1,22.1,5.4c3.3,6.2-0.2,14.5-10.2,19.9c-5.2,2.8-13.9,6-20.1,2.4C335.5,256.5,337.6,252.7,339.8,251.1z"/>
				<path class="st0" d="M395,239.4c-4.7,1.8-9.5,0.1-12.1-6.6l-12.1-31.6c-0.7-1.9-2.2-2.8-3.7-2.3l-10.1,3.9l-0.3-0.9l9.6-3.7
					c2.4-1.2,3.7-7,4.7-11.6l3.3,8.5l10.7-4.1l0.3,0.9l-10.7,4.1l12.8,33.3c2.1,5.5,5.6,9.5,11.6,6.5c0.3-0.1,0.5-0.2,0.6,0
					c0.1,0.2-0.1,0.3-0.2,0.5C398.2,237.7,396.5,238.8,395,239.4z"/>
				<path class="st0" d="M441.7,247.2c2.9-0.3,4.6-2.1,4.4-4.6l-5.5-58.2c-0.2-2.4-2.3-3.2-3.7-3.1c-0.5,0-0.7-0.4,0-0.6
					c2.6-0.5,5.5-1.7,8.2-4l0.4,4.4c4.8-4.8,10-6.2,14.4-6.6c14-1.2,24.9,7.9,26.2,22.1c1.4,15.4-7.1,26.3-20.6,27.6
					c-7.6,0.7-14.1-2.7-16.5-5.4l2.2,23.5c0.2,2.5,2.3,3.9,5.2,3.7c0.4,0,0.4,0.5,0.1,0.6l-14.8,1.4
					C441.4,247.8,441.3,247.3,441.7,247.2z M465.3,223.1c11.6-1.1,17.6-11.2,15.6-26c-1.8-13-10.1-22.1-23-20.8
					c-3.6,0.3-7.7,1.9-12.2,5.7l2.9,30.5C450.2,217.9,457.7,223.9,465.3,223.1z"/>
				<path class="st0" d="M498,179c-0.5,0-0.7-0.5,0.1-0.6c2.7-0.2,6.1-3.1,8.8-6l-1.9,45c-0.1,2.5,1.7,4.2,4.6,4.3
					c0.4,0,0.4,0.6,0,0.6l-14.9-0.6c-0.4,0-0.4-0.6,0-0.6c2.9,0.1,4.9-1.4,5-3.9l1.4-34.9C501.4,180,499.1,179,498,179z
					 M504.5,154.4c2,0.1,3.5,1.7,3.4,3.7c-0.1,1.9-1.7,3.5-3.7,3.4c-1.9-0.1-3.4-1.8-3.3-3.7C501,155.8,502.6,154.3,504.5,154.4z"/>
				<path class="st0" d="M547.8,178c8.1,1.4,18,8.7,17.3,22.1c0,0.8-0.6,0.9-1.4,0.7l-37-6.4c-0.3,0.9-0.4,2-0.6,3
					c-2.4,13.9,2.9,26.1,15.5,28.3c6,1,12.1-0.8,17.3-6.4c1.3-1.4,1.5-1.7,2-1.4c0.5,0.3,0.2,0.8-0.7,1.9
					c-5.2,5.6-11.7,8.4-19.3,7.6c-3.5,0.2-7.5,2.2-8.2,6.7c-0.7,4.1,1.6,7.2,6.2,8l-0.1,0.4c-7-1.2-10.7-4.8-9.9-8.9
					c0.7-4.1,4.6-6.5,8.4-6.7c-12.3-3-19.3-14.5-16.9-28.7C522.8,183.3,534.6,175.7,547.8,178z M560.4,199.2
					c0.8-11.9-4.7-19-13.6-20.5c-9.8-1.7-16.9,4.9-19.9,14.8L560.4,199.2z"/>
				<path class="st0" d="M594.7,241.1c2.5,0.9,4.3,0.9,3.7-1.2l-10.8-29.3l-4,1.6l-6.6,18.1c-0.9,2.3,0.4,4.5,3.1,5.5
					c0.4,0.1,0.2,0.7-0.2,0.5l-14-5.1c-0.4-0.1-0.2-0.7,0.2-0.5c2.7,1,5.1,0.1,5.9-2.2l19.9-54.8c0.8-2.3-1-3.9-2-4.2
					c-0.5-0.2-0.5-0.7,0.3-0.5c2.6,0.6,6.7-1.1,10.2-3l-16.3,44.7l26.4-10.8c2.3-1.3,0.5-2.6-2-3.5c-0.4-0.1-0.2-0.7,0.2-0.5l14,5.1
					c0.4,0.1,0.2,0.7-0.2,0.5c-2.4-0.9-7.7-1.6-10.4-0.7l-19.8,8l12,32.8c1.2,2.5,3.3,4.2,5.7,5.1c0.4,0.1,0.2,0.7-0.2,0.5
					l-15.2-5.5C594.2,241.5,594.4,240.9,594.7,241.1z"/>
				<path class="st0" d="M611.8,247.5c2.5,1.5,5,1,6.2-1.1l18.8-31.8c1.2-2.1,0-3.9-1.1-4.7c-0.4-0.2-0.3-0.8,0.4-0.4
					c2.5,1.1,5.5,1.9,9,1.6l-3.9,6.6c5.9-1.6,13-1,18.8,2.5c11.5,6.8,10.9,16.5,7.4,22.3l-10,16.8c-5,8.5-5.7,11.8-1.6,13.8
					c0.2,0.1,0.3,0.2,0.3,0.4c0,0.2-0.3,0.3-0.5,0.3c-1.9-0.2-3.5-0.7-4.7-1.5c-3.7-2.2-3.6-6.3-0.3-12l11.6-19.5
					c2.5-4.2,6.6-14.4-3.4-20.3c-5.3-3.3-18-2.2-21.4,3.5l-14.9,25.2c-1.3,2.1-0.5,4.5,2,6c0.3,0.2,0,0.7-0.3,0.5l-12.8-7.6
					C611.2,247.8,611.5,247.3,611.8,247.5z"/>
				<path class="st0" d="M686.8,245.4c-0.4-0.3-0.2-0.8,0.4-0.4c2.3,1.4,6.7,1.1,10.6,0.4l-28.1,35.2c-1.6,1.9-1.1,4.4,1.2,6.2
					c0.3,0.2-0.1,0.7-0.4,0.4l-11.6-9.3c-0.3-0.2,0.1-0.7,0.4-0.4c2.2,1.8,4.8,1.7,6.3-0.2l21.8-27.3
					C688.9,248.1,687.6,246,686.8,245.4z M706.5,229.4c1.6,1.3,1.8,3.4,0.6,5c-1.2,1.5-3.4,1.8-5,0.6c-1.5-1.2-1.7-3.4-0.5-4.9
					C702.9,228.4,705,228.2,706.5,229.4z"/>
				<path class="st0" d="M727.5,273.9c5.7,5.9,9.4,17.6,0.9,28.1c-0.5,0.6-1,0.3-1.6-0.2l-26.2-27c-0.8,0.6-1.5,1.3-2.3,2.1
					c-10.1,9.8-13,22.8-4.2,31.9c4.2,4.3,10.3,6.5,17.7,5c1.9-0.4,2.2-0.5,2.4,0c0.3,0.5-0.3,0.8-1.7,1.1
					c-8.1,1.6-15.5-0.4-21.4-6.5c-9.5-9.8-8.8-24,2-34.6C704.2,263.5,718.2,264.3,727.5,273.9z M725.2,298.5
					c7.7-9.2,7.4-18.1,1.1-24.6c-6.9-7.2-16.5-6-24.8,0.2L725.2,298.5z"/>
				<path class="st0" d="M721.5,331.9c1.3,1.7,0.9,4-0.6,5.1c-1.5,1.1-3.8,0.8-5.1-0.9c-1.2-1.6-0.8-4,0.7-5
					C718,330,720.3,330.3,721.5,331.9z M728.8,325.9l39.9-31.7l3.1,4.2l-42.2,28.6l-0.6-0.4L728.8,325.9z"/>
				<path class="st0" d="M735,414.3c0.3-0.1,0.4,0.2,0.3,0.4c-0.4,1.5-0.4,3,0,4.4c1.1,3.8,4.6,4.6,10.4,2.9l49.9-14.9
					c2.3-0.7,2.5-3.1,2.2-4.1c-0.1-0.5,0.3-0.8,0.6-0.1c1,2.5,4.9,4.7,8.5,6.4L747.3,427c-6.3,1.9-11.4-1.1-12.8-5.5
					c-0.6-2-0.6-4.5,0.3-6.9C734.8,414.5,734.9,414.3,735,414.3z M823.2,401c0.6,1.9-0.5,3.8-2.4,4.4c-1.8,0.5-3.8-0.5-4.4-2.4
					c-0.5-1.8,0.6-3.8,2.4-4.3C820.7,398.1,822.6,399.1,823.2,401z"/>
				<path class="st0" d="M815,449.7c1.3,8.1-2.4,19.8-15.3,23.6c-0.7,0.2-1-0.3-1.1-1.1l-6-37.1c-1,0.1-2,0.2-3,0.4
					c-13.9,2.3-23.7,11.3-21.7,23.8c1,6,4.7,11.2,11.6,14.2c1.8,0.8,2.1,0.8,2,1.4c-0.1,0.6-0.7,0.5-2-0.1
					c-7.5-3.3-12.5-9.1-13.8-17.6c-2.2-13.4,6.5-24.8,21.4-27.2C801.8,427.7,812.8,436.4,815,449.7z M799,468.5
					c11.5-3.1,16.4-10.6,15-19.5c-1.6-9.8-10.1-14.4-20.4-14L799,468.5z"/>
				<path class="st0" d="M782.5,489.4c0.2,0.9-0.2,1.4-1,1.3c-8.8-0.6-11.9,6.1-11.9,13.1c0,7.9,4.4,14.1,10.3,14.2
					c5,0,7.9-4.1,12.8-15.4c3.3-7.7,6.9-16,14.3-15.9c7.6,0.1,12.1,7.7,12.1,16.1c0,5.6-1.6,12.4-5,16.1c-2.8,3-5.9,0.3-6.3-2.3
					c-0.2-1,0.2-1.3,1-1.4c6-0.3,9.5-5.8,9.5-12.1c0-6.1-2.4-12.9-8.3-12.9c-6.9-0.1-9.5,7.7-13,15.5c-4.7,10.5-7.9,16.8-15.4,16.8
					c-7-0.1-12.6-7.1-12.5-18.5c0-5.9,1.4-15,7.5-18.8C779.9,483,782.2,486.7,782.5,489.4z"/>
				<path class="st0" d="M766.4,543.4c0.7-4.9,4.5-8.4,11.5-7.5l33.6,4.5c2,0.3,3.6-0.6,3.8-2.2l1.4-10.7l1,0.1l-1.4,10.2
					c-0.1,2.7,4.3,6.6,7.9,9.7l-9-1.2l-1.5,11.3l-1-0.1l1.5-11.3l-35.4-4.7c-5.8-0.8-11,0.4-11.3,7.1c0,0.3-0.1,0.6-0.3,0.5
					c-0.2,0-0.3-0.2-0.3-0.4C766.3,547.1,766.2,545.1,766.4,543.4z"/>
				<path class="st0" d="M737.2,580.7c-1.1,2.6-0.4,5,1.9,6l53.7,23.2c2.2,0.9,3.9-0.5,4.5-1.7c0.2-0.4,0.7-0.4,0.5,0.3
					c-0.8,2.6-1.2,5.7-0.4,9.1l-4-1.7c1.9,6.5,0.7,11.8-1.1,15.8c-5.7,12.9-18.9,18.1-32,12.4c-14.2-6.1-19.7-18.8-14.3-31.3
					c3-7,9.2-11.1,12.6-11.9l-21.7-9.3c-2.3-1-4.5,0.1-5.7,2.8c-0.2,0.4-0.7,0.1-0.5-0.2l5.9-13.7
					C736.8,580.1,737.3,580.3,737.2,580.7z M747,613c-4.6,10.7,1.4,20.8,15.4,26.1c12.3,4.7,24.2,1.8,29.3-10.2
					c1.4-3.3,2.1-7.7,0.9-13.4l-28.1-12.1C758.8,602.2,750,605.9,747,613z"/>
				<path class="st0" d="M770,662.9c0.2-0.4,0.8-0.3,0.4,0.4c-1.1,2.4-0.2,6.8,1,10.6l-38.6-23.3c-2.1-1.3-4.5-0.5-6,2
					c-0.2,0.3-0.7,0-0.5-0.3l7.7-12.7c0.2-0.3,0.7,0,0.5,0.3c-1.5,2.5-1.1,4.9,1.1,6.2l29.9,18C767.5,665.3,769.4,663.8,770,662.9z
					 M788.4,680.4c-1,1.7-3.1,2.2-4.9,1.2c-1.6-1-2.2-3.1-1.2-4.9c1-1.6,3.2-2.1,4.8-1.1C788.9,676.6,789.4,678.8,788.4,680.4z"/>
				<path class="st0" d="M746.9,707c-5.1,6.5-16.3,11.5-27.7,4.5c-0.7-0.4-0.5-1,0-1.6l23.4-29.4c-0.7-0.7-1.5-1.3-2.3-2
					c-11-8.8-24.3-10-32.2,0c-3.8,4.7-5.1,11-2.7,18.2c0.6,1.8,0.8,2.1,0.3,2.4c-0.5,0.3-0.8-0.2-1.3-1.6
					c-2.4-7.3-1.7-14.3,2.7-20.6c1.6-3.2,1.7-7.6-1.9-10.4c-3.2-2.6-7.1-2.1-10,1.6l-0.3-0.2c4.4-5.5,9.3-7.1,12.6-4.4
					c3.2,2.6,3.5,7.2,1.9,10.6c8.6-9.4,22-9.9,33.3-1C754.3,682.5,755.2,696.5,746.9,707z M722.2,707.8c10.1,6.4,18.9,5,24.5-2
					c6.2-7.8,3.9-17.2-3.4-24.5L722.2,707.8z"/>
				<path class="st0" d="M669,717.8c-2,1.8-2.9,3.3-0.7,3.8l30.9,4.6l0.5-4.3L687,707.5c-1.6-1.9-4.2-1.8-6.3,0.1
					c-0.3,0.3-0.7-0.2-0.4-0.4l11.2-9.8c0.3-0.3,0.7,0.2,0.4,0.4c-2.2,1.9-2.5,4.4-0.9,6.3l38.5,43.8c1.6,1.8,3.9,0.9,4.7,0.2
					c0.4-0.3,0.8-0.1,0.3,0.5c-1.8,2-2.2,6.5-2.2,10.4l-31.4-35.7l-3.2,28.3c0,2.7,2,1.7,4-0.1c0.3-0.3,0.7,0.2,0.4,0.4l-11.2,9.8
					c-0.3,0.3-0.7-0.2-0.4-0.4c1.9-1.7,5.1-6,5.7-8.8l2.5-21.2l-34.6-5.2c-2.8-0.1-5.3,0.8-7.2,2.5c-0.3,0.3-0.7-0.2-0.4-0.4
					l12.2-10.7C668.9,717.1,669.3,717.6,669,717.8z"/>
				<path class="st0" d="M655.2,729.8c-2.5,1.5-3.3,3.8-2,6l18.9,31.7c1.2,2.1,3.4,1.9,4.6,1.3c0.4-0.2,0.8,0.1,0.2,0.5
					c-2.2,1.6-4.3,3.9-5.7,7.2l-3.9-6.6c-1.4,5.9-5.3,11.9-11.2,15.3c-11.5,6.8-19.7,1.6-23.1-4.2l-10-16.8c-5-8.5-7.6-10.7-11.3-8
					c-0.2,0.1-0.3,0.2-0.5,0.1c-0.2-0.1-0.1-0.4,0-0.6c1.1-1.5,2.3-2.7,3.5-3.4c3.7-2.2,7.3-0.2,10.6,5.5l11.6,19.5
					c2.5,4.2,9.4,12.7,19.5,6.7c5.4-3.1,10.5-14.7,7.2-20.4l-14.9-25.1c-1.3-2.1-3.8-2.6-6.2-1.1c-0.3,0.2-0.6-0.3-0.3-0.5l12.8-7.6
					C655.2,729.1,655.5,729.6,655.2,729.8z"/>
				<path class="st0" d="M621.1,796.6c0.4-0.2,0.8,0.2,0.1,0.6c-2.4,1.3-4.2,5.4-5.4,9.1l-17.4-41.6c-1-2.3-3.4-3.1-6-1.9
					c-0.4,0.1-0.6-0.4-0.2-0.5l13.7-5.8c0.4-0.1,0.6,0.4,0.2,0.5c-2.7,1.1-3.8,3.4-2.8,5.7l13.5,32.2
					C617.7,797.1,620.1,797,621.1,796.6z M625.7,821.6c-1.9,0.8-3.9,0-4.6-1.9c-0.7-1.8,0-3.9,1.9-4.6c1.8-0.7,3.8,0.2,4.6,1.9
					C628.3,818.8,627.5,820.9,625.7,821.6z"/>
				<path class="st0" d="M576.4,818.6c-8,2.2-20-0.3-25.1-12.7c-0.3-0.7,0.2-1.1,0.9-1.3l36.3-9.9c-0.2-1-0.4-2-0.7-3
					c-3.7-13.6-13.7-22.4-26-19c-5.8,1.6-10.6,5.9-12.9,13.1c-0.6,1.9-0.6,2.2-1.2,2.1c-0.6,0-0.6-0.6-0.2-2
					c2.5-7.8,7.8-13.4,16-15.6c13.1-3.6,25.3,3.8,29.3,18.4C596.9,803.2,589.4,815,576.4,818.6z M556,804.7
					c4.3,11.1,12.3,15.2,21,12.8c9.6-2.6,13.2-11.6,11.7-21.8L556,804.7z"/>
				<path class="st0" d="M528.5,785.4c-2.1,0.3-3.9-1.1-4.2-3c-0.2-1.8,1.1-3.7,3.2-4c2-0.3,3.8,1.2,4.1,3
					C531.9,783.3,530.5,785.1,528.5,785.4z M530.2,794.7l8.6,50.2l-5.2,0.7l-4.8-50.7l0.6-0.4L530.2,794.7z"/>
				<path class="st0" d="M419.2,841.5c-2-0.4-3.2-2.2-2.7-4.2c0.4-1.9,2.2-3.2,4.2-2.7c1.9,0.4,3,2.3,2.6,4.2
					C422.9,840.7,421.1,841.9,419.2,841.5z M449.7,757.8c-0.1,0.3-0.3,0.2-0.5,0.1c-1.2-1-2.5-1.8-3.9-2.1c-3.8-0.8-6.3,1.8-7.5,7.7
					L427,814.4c-0.5,2.3,1.6,3.7,2.6,3.9c0.5,0.1,0.6,0.6-0.2,0.5c-2.7-0.3-6.5,2.1-9.7,4.4l12.9-60.9c1.4-6.5,6.4-9.5,11-8.7
					c2.1,0.4,4.3,1.6,5.9,3.6C449.6,757.5,449.7,757.6,449.7,757.8z"/>
				<path class="st0" d="M380.3,811c-7.8-2.7-16.3-11.6-13.4-24.7c0.2-0.8,0.8-0.7,1.5-0.5l35.5,12.5c0.4-0.9,0.8-1.9,1.1-2.9
					c4.7-13.3,1.5-26.2-10.5-30.4c-5.7-2-12.1-1.2-18.1,3.4c-1.5,1.2-1.7,1.4-2.2,1.1c-0.5-0.4-0.1-0.9,1-1.8c6.5-5,14-6.6,22-3.7
					c12.8,4.5,18.6,17.5,13.6,31.8C405.9,809.9,393,815.5,380.3,811z M371.5,788c-2.8,11.6,1.5,19.5,10,22.5
					c9.4,3.3,17.5-2,22.1-11.3L371.5,788z"/>
				<path class="st0" d="M361.1,763.5c-0.8-0.3-1.2-0.9-0.7-1.5c4.8-7.4,0.4-13.4-5.8-16.8c-6.9-3.8-14.5-2.9-17.4,2.2
					c-2.4,4.4-0.2,8.9,7.4,18.6c5.2,6.6,10.7,13.8,7.1,20.2c-3.7,6.6-12.6,6.9-19.9,2.8c-4.9-2.7-10.1-7.4-11.7-12.1
					c-1.3-3.9,2.5-5.3,5-4.5c0.9,0.3,1.1,0.8,0.8,1.5c-2.6,5.5,0.5,11.1,6.1,14.1c5.4,3,12.4,4.1,15.3-1.1c3.4-6-2.2-12-7.4-18.8
					c-7-9.2-11-15-7.3-21.5c3.4-6.1,12.3-7.6,22.2-2.1c5.1,2.9,12.5,8.4,12.9,15.7C367.9,764.3,363.6,764.5,361.1,763.5z"/>
				<path class="st0" d="M321.4,723.3c4,3,5.2,8,1,13.7l-20.1,27.3c-1.2,1.6-1.2,3.4,0.1,4.4l8.7,6.4l-0.6,0.8l-8.3-6.1
					c-2.3-1.4-7.9,0.6-12.3,2.3l5.4-7.3l-9.2-6.8l0.6-0.8l9.2,6.8l21.2-28.7c3.5-4.7,5-9.8-0.8-13.3c-0.2-0.2-0.5-0.3-0.3-0.5
					c0.1-0.2,0.3-0.1,0.5-0.1C318.2,721.5,320.1,722.3,321.4,723.3z"/>
				<path class="st0" d="M302.8,679.8c-1.8-2.3-4.2-2.8-6.2-1.2l-46.1,36.1c-1.9,1.5-1.4,3.7-0.6,4.8c0.3,0.4,0,0.8-0.5,0.3
					c-1.9-1.9-4.4-3.7-7.8-4.7l3.5-2.7c-6.6-1.4-10.7-5.1-13.4-8.5c-8.6-11.2-6.8-25.2,4.4-34c12.2-9.5,25.9-8.3,34.3,2.5
					c4.7,6,5.3,13.4,4.4,16.8l18.6-14.5c2-1.5,2.1-4.1,0.3-6.3c-0.2-0.3,0.2-0.7,0.5-0.4l9.2,11.7
					C303.5,679.7,303,680.1,302.8,679.8z M269.7,672.9c-7.2-9.1-18.9-8.8-30.3,1c-10,8.6-13.1,20.4-5,30.6c2.2,2.9,5.8,5.5,11.4,7.2
					l24.1-18.9C273.5,688.4,274.5,678.9,269.7,672.9z"/>
				<path class="st0" d="M190.7,677c-1-1.7-0.5-3.8,1.3-4.9c1.7-1,3.8-0.5,4.9,1.3c1,1.7,0.3,3.8-1.3,4.8
					C193.8,679.2,191.7,678.6,190.7,677z M214.9,669.2c0.2,0.4-0.1,0.8-0.5,0.2c-1.6-2.2-5.9-3.4-9.8-4.2l38.9-22.7
					c2.2-1.3,2.6-3.7,1.1-6.2c-0.2-0.3,0.3-0.6,0.5-0.3l7.5,12.8c0.2,0.3-0.3,0.6-0.5,0.3c-1.4-2.5-3.8-3.3-6-2.1L216,664.6
					C214,665.8,214.4,668.3,214.9,669.2z"/>
				<path class="st0" d="M187.2,627.7c-3.2-7.6-2.3-19.8,9.4-26.5c0.7-0.4,1.1,0.1,1.4,0.8l14.6,34.7c0.9-0.3,1.9-0.7,2.9-1.1
					c13-5.5,20.4-16.5,15.5-28.2c-2.3-5.6-7.2-9.8-14.7-11.1c-1.9-0.3-2.2-0.3-2.3-0.9c0-0.6,0.6-0.7,2-0.4
					c7.6,1.4,13.4,5.3,16.8,12.2c2,2.9,5.9,5.1,10.1,3.4c3.8-1.6,5.2-5.2,3.4-9.5l0.4-0.1c2.7,6.5,1.7,11.5-2.2,13.2
					c-3.8,1.6-8-0.4-10.2-3.4c4.1,12-1.9,24.1-15.1,29.6C205.2,646,192.4,640.1,187.2,627.7z M198.4,605.7
					c-10.5,5.8-13.5,14.2-10,22.5c3.9,9.2,13.2,11.6,23.1,8.8L198.4,605.7z"/>
				<path class="st0" d="M215.2,554.2c-0.6-2.6-1.5-4.1-3-2.5l-18.9,24.9l3.5,2.6l18.8-4.2c2.4-0.5,3.6-2.8,3-5.6
					c-0.1-0.4,0.5-0.5,0.6-0.1l3.2,14.5c0.1,0.4-0.5,0.5-0.6,0.1c-0.6-2.8-2.6-4.3-5.1-3.8l-56.9,12.7c-2.3,0.5-2.7,3-2.5,4
					c0.1,0.5-0.3,0.8-0.6,0c-0.9-2.6-4.6-5.1-8-7l46.4-10.4l-23.3-16.4c-2.3-1.2-2.4,0.9-1.9,3.6c0.1,0.4-0.5,0.5-0.6,0.1l-3.2-14.5
					c-0.1-0.4,0.5-0.5,0.6-0.1c0.6,2.5,2.8,7.3,5,9.2l17.4,12.4l21.2-27.8c1.4-2.4,1.8-5,1.3-7.6c-0.1-0.4,0.5-0.5,0.6-0.1l3.5,15.8
					C215.8,554.5,215.3,554.6,215.2,554.2z"/>
				<path class="st0" d="M211.4,536.3c-0.1-2.9-1.8-4.7-4.3-4.6l-36.9,1.3c-2.4,0.1-3.3,2.1-3.3,3.5c0,0.5-0.5,0.7-0.6-0.1
					c-0.4-2.7-1.3-5.6-3.6-8.4l7.7-0.3c-4.6-4.1-7.8-10.4-8.1-17.2c-0.5-13.3,8-18,14.8-18.3l19.6-0.7c9.9-0.3,13-1.5,12.5-6.1
					c0-0.3,0-0.4,0.2-0.5c0.2-0.1,0.4,0.1,0.5,0.3c0.8,1.7,1.3,3.3,1.3,4.8c0.2,4.3-3.3,6.4-9.9,6.7l-22.7,0.8
					c-4.9,0.2-15.7,2.2-15.3,13.9c0.1,6.2,7.9,16.3,14.5,16.1l29.2-1c2.5-0.1,4.1-2.1,4-4.9c0-0.4,0.6-0.4,0.6,0l0.5,14.9
					C212,536.7,211.4,536.7,211.4,536.3z"/>
				<path class="st0" d="M144.9,466.4c0.2-2,1.9-3.4,3.9-3.2c1.9,0.2,3.4,1.9,3.2,3.9c-0.2,1.9-2,3.3-3.9,3.1
					C146.1,470,144.7,468.3,144.9,466.4z M169.1,474.4c0,0.5-0.5,0.6-0.6-0.2c0-2.7-2.7-6.3-5.4-9.1l44.8,4.6
					c2.5,0.3,4.3-1.5,4.6-4.4c0-0.4,0.6-0.3,0.6,0.1l-1.5,14.8c0,0.4-0.6,0.3-0.6-0.1c0.3-2.9-1.1-4.9-3.6-5.2l-34.7-3.6
					C170.3,471.1,169.2,473.3,169.1,474.4z"/>
				<path class="st0" d="M171.2,424.6c1.9-8,9.8-17.4,23.2-15.9c0.8,0.1,0.8,0.7,0.6,1.4l-8.6,36.6c0.9,0.3,1.9,0.6,3,0.8
					c13.7,3.2,26.2-1.3,29.1-13.7c1.4-5.9-0.1-12.1-5.3-17.6c-1.3-1.4-1.6-1.6-1.3-2.1c0.3-0.5,0.8-0.2,1.9,0.8
					c5.7,6,8,13.2,6.1,21.5c-3.1,13.3-15.4,20.4-30.2,16.9C174.9,450,168.1,437.7,171.2,424.6z M193.1,413.4
					c-11.9-1.5-19.3,3.5-21.3,12.3c-2.3,9.7,3.8,17.2,13.5,20.7L193.1,413.4z"/>
				<path class="st0" d="M214.2,395.5L166,379l1.9-4.9l46.8,20.1l0,0.7L214.2,395.5z M223.3,398.5c0.8-2,2.9-2.9,4.7-2.2
					c1.7,0.7,2.7,2.8,2,4.8c-0.7,1.9-2.9,2.8-4.6,2.1C223.5,402.5,222.5,400.4,223.3,398.5z"/>
			</g>
		</g>
		<g>
			<g>
				<path class="st0" d="M634.5,555.3c-2.9-8.3-9.1-14.2-16.7-21.8c-5.9-5.9-15.2-12.5-20.8-14.8c-23.4-34.1-55.9-44.8-67.6-39
					c-15.3,7.7,7,60.6,22.1,80.5c13.6,18,37.8,34.5,34.2,84.3c-0.2,2.5-2.7,4.1-5.1,3.3c-13.7-4.9-45.4-13.6-49.1-13.1
					c-0.1,1.6,5.2,12.9,10.5,28.3c-14.2,5.3-21.1,37.2-26.4,51.7c1.4-2.3,4.6-4.2,6.6-5.8c4.8-3.9,9.6-7.6,14.5-11.4
					c11.5-8.9,23.1-17.6,34.7-26.4c8.1-6.1,17.2-11.4,24.2-18.7c5.2-5.4,9.5-11.7,13-18.3c8.8-16.6,12.4-35.8,10.9-54.5
					c-0.6-7.3-2-14.6-4.1-21.6c-3-10-6.8-19-11.1-27C617.5,544,635.7,558.7,634.5,555.3z"/>
			</g>
			<g>
				<path class="st0" d="M395.3,358.4c0.2-2.5,2.7-4.1,5.1-3.3c13.7,4.9,45.4,13.6,49.1,13.1c0.1-1.6-5.2-12.9-10.5-28.3
					c14.2-5.3,21.1-37.2,26.4-51.7c-1.4,2.3-4.6,4.2-6.6,5.8c-4.8,3.9-9.6,7.6-14.5,11.4c-11.5,8.9-23.1,17.6-34.7,26.4
					c-8.1,6.1-17.2,11.4-24.2,18.7c-5.2,5.4-9.5,11.7-13,18.3c-8.8,16.6-12.4,35.8-10.9,54.5c0.6,7.3,2,14.6,4.1,21.6
					c3,10,6.8,19,11.1,27c-13-13-31.2-27.8-30-24.3c2.9,8.3,9.1,14.2,16.7,21.8c5.9,5.9,15.2,12.5,20.8,14.8
					c23.4,34.1,55.9,44.8,67.6,39c15.3-7.7-7-60.6-22.1-80.5C415.9,424.7,391.7,408.2,395.3,358.4z"/>
			</g>
			<g>
				<path class="st0" d="M490.9,509.8L490.9,509.8L490.9,509.8c-2.3-7.6-8.3-13.5-15.8-15.8l0,0l0,0c7.6-2.3,13.5-8.3,15.8-15.8l0,0
					l0,0c2.3,7.6,8.3,13.5,15.8,15.8l0,0l0,0C499.2,496.4,493.3,502.3,490.9,509.8z"/>
			</g>
		</g>
	</g>
</g>
</svg>
