<?xml version="1.0" encoding="utf-8"?>
<!-- Generator: Adobe Illustrator 27.1.1, SVG Export Plug-In . SVG Version: 6.00 Build 0)  -->
<svg version="1.1" id="Layer_1" xmlns="http://www.w3.org/2000/svg" xmlns:xlink="http://www.w3.org/1999/xlink" x="0px" y="0px"
	 viewBox="0 0 1000 600" style="enable-background:new 0 0 1000 600;" xml:space="preserve">
<style type="text/css">
	.st0{fill:#1D1D1B;}
</style>
<g>
	<g>
		<g>
			<g>
				<path class="st0" d="M461.6,432.2c0,8-6,29.4-29.2,31c-6.3,0.4-13.8-0.4-22.1-6.2v32.6c0,3.5,2.7,5.8,6.7,5.8
					c0.5,0,0.5,0.8,0,0.8h-20.7c-0.5,0-0.5-0.8,0-0.8c4,0,6.7-2.3,6.7-5.8v-81.6c0-3.3-2.8-4.7-4.7-4.8c-0.7,0-0.9-0.7,0.1-0.8
					c3.7-0.4,7.9-1.6,11.9-4.5v9.6c2.8-4.3,11.2-10.7,25.4-8.8C453.7,401.2,461.6,415.9,461.6,432.2z M454.4,431.7
					c0-13.5-6-28.4-21.1-31.8c-11-2.5-21.8,8.4-22.9,16.5v39.6c8.6,4.9,14.8,5.9,20.7,4.9C451,457.8,454.4,439.1,454.4,431.7z"/>
				<path class="st0" d="M493.4,464.9h-20.7c-0.5,0-0.5-0.8,0-0.8c4,0,6.7-2.3,6.7-5.8v-48.8c0-3.3-3.2-4.5-4.7-4.5
					c-0.7,0-0.9-0.7,0.1-0.8c3.7-0.4,8.3-4.7,11.9-8.8v63c0,3.5,2.7,5.8,6.7,5.8C494,464.1,494,464.9,493.4,464.9z M477.3,375
					c0-2.8,2.1-4.9,4.8-4.9c2.8,0,4.9,2.1,4.9,4.9c0,2.7-2.1,4.9-4.9,4.9C479.4,379.9,477.3,377.7,477.3,375z"/>
				<path class="st0" d="M513.1,436.1c2.7,21.8,22.3,32.6,37.3,25.9c5.5-2.3,9.2-6.2,11.6-10.8c1.1-2.3,1.5-2.8,2.3-2.5
					c0.7,0.3,0.9,1.1-0.1,2.8c-5.5,8.7-13.8,14-23.8,15h0.9c-5.4,0-13.2,6.8-13.2,11.4c0,5.8,4.1,9.5,11.1,9.5v0.5
					c-9.9,0-15.8-4-15.8-9.9c0-6.3,5.6-10.8,11.4-11.5c-17.9-1.2-30.2-15.4-30.2-35.4c0-21,14.2-34.2,32.9-34.2
					c11.5,0,26.8,7.8,29,26.3c0.1,1.1-0.9,1.3-1.7,1.3h-52C512.4,428.2,512.6,432.1,513.1,436.1z M512.7,423.7h47.1
					c-1.5-17-10.7-25.7-23.5-25.7C521.9,398,514,409,512.7,423.7z"/>
				<path class="st0" d="M640.1,464.9H620c-0.5,0-0.5-0.8,0-0.8c4,0,4.7-0.9,3.1-3.9l-28.5-32.8l-4.4,4v26.9c0,3.5,2.7,5.8,6.7,5.8
					c0.5,0,0.5,0.8,0,0.8h-20.7c-0.5,0-0.5-0.8,0-0.8c4,0,6.7-2.3,6.7-5.8v-85.6c0-3.3-3.2-4.5-4.7-4.5c-0.7,0-0.9-0.7,0.1-0.8
					c3.7-0.4,8.3-4.7,11.9-8.8v70.6l29.4-26.7c2.4-2.8-0.5-3.6-4.3-3.6c-0.5,0-0.5-0.8,0-0.8h20.7c0.5,0,0.5,0.8,0,0.8
					c-3.6,0-10.8,1.6-14,4l-22.9,20.5l30.1,36c2.5,3.2,6.8,4.8,10.8,4.8C640.6,464.1,640.6,464.9,640.1,464.9z"/>
				<path class="st0" d="M720.3,463l0.1,0.4l-0.3,0.4c-10.7,3.9-15.5-0.5-15.5-12.7v-31c0-7.1-2.4-23.4-20.3-22.3
					c-8.3,0.5-21.4,11.1-21.4,19.1v41.5c0,3.5,2.7,5.8,6.7,5.8c0.5,0,0.5,0.8,0,0.8h-20.7c-0.5,0-0.5-0.8,0-0.8c4,0,6.7-2.3,6.7-5.8
					v-51.5c0-3.3-2.8-4.7-4.7-4.8c-0.7,0-0.9-0.7,0.1-0.8c3.7-0.4,7.9-1.6,11.9-4.5v10c5.8-5.6,13.9-9.5,21.4-10
					c20.9-1.5,27.7,11.8,27.7,21.8v26.6c0,13.8,1.5,17.8,7.9,17.8L720.3,463z"/>
				<path class="st0" d="M752.3,464.9h-20.7c-0.5,0-0.5-0.8,0-0.8c4,0,6.7-2.3,6.7-5.8v-48.8c0-3.3-3.2-4.5-4.7-4.5
					c-0.7,0-0.9-0.7,0.1-0.8c3.7-0.4,8.3-4.7,11.9-8.8v63c0,3.5,2.7,5.8,6.7,5.8C752.8,464.1,752.8,464.9,752.3,464.9z M736.1,375
					c0-2.8,2.1-4.9,4.8-4.9c2.8,0,4.9,2.1,4.9,4.9c0,2.7-2.1,4.9-4.9,4.9C738.3,379.9,736.1,377.7,736.1,375z"/>
				<path class="st0" d="M770.6,436.1c2.7,21.8,22.3,32.6,37.3,25.9c5.5-2.3,9.2-6.2,11.6-10.8c1.1-2.3,1.5-2.8,2.3-2.5
					c0.7,0.3,0.9,1.1-0.1,2.8c-6.3,9.9-16.2,15.5-28.2,15.1c-18.6-0.7-31.4-15.1-31.4-35.6c0-21,14.2-34.2,32.9-34.2
					c11.5,0,26.8,7.8,29,26.3c0.1,1.1-0.9,1.3-1.7,1.3h-52C770,428.2,770.1,432.1,770.6,436.1z M770.2,423.7h47.1
					c-1.5-17-10.7-25.7-23.5-25.7C779.5,398,771.6,409,770.2,423.7z"/>
				<path class="st0" d="M848,459.7c0-2.8,2.3-5.2,5.1-5.2c2.9,0,5.2,2.4,5.2,5.2c0,2.9-2.3,5.2-5.2,5.2
					C850.3,464.9,848,462.6,848,459.7z M853.5,442.7l-1.1-0.4l-2.7-73.7h7.4l-2.7,73.7L853.5,442.7z"/>
				<g>
					<path class="st0" d="M162.8,398v82.1c0,13-11.8,18.1-20.9,11l-0.3-0.4l0.1-0.4h0.4c9.4,4.7,13.2-4.3,13.2-12.4v-65.7
						c0-3.3-3.2-4.5-4.7-4.5c-0.7,0-0.9-0.7,0.1-0.8C154.7,406.4,159.2,402.1,162.8,398z"/>
					<path class="st0" d="M187.4,436.1c2.7,21.8,22.3,32.6,37.3,25.9c5.5-2.3,9.2-6.2,11.6-10.8c1.1-2.3,1.5-2.8,2.3-2.5
						c0.7,0.3,0.9,1.1-0.1,2.8c-6.3,9.9-16.2,15.5-28.2,15.1c-18.6-0.7-31.4-15.1-31.4-35.6c0-21,14.2-34.2,32.9-34.2
						c11.5,0,26.7,7.8,29,26.3c0.1,1.1-0.9,1.3-1.7,1.3h-52C186.8,428.2,186.9,432.1,187.4,436.1z M187,423.7h47.1
						c-1.5-17-10.7-25.7-23.5-25.7C196.3,398,188.4,409,187,423.7z"/>
					<path class="st0" d="M252.3,455.6c-2.9-4.7,2.5-8.2,6.3-8.7c1.2-0.3,1.9,0.3,1.9,1.3c-0.7,10.7,5.1,16.3,15.6,16.6
						c13.4,0.5,24.6-8.3,21-18.2c-4.8-13-43.6-14-42.8-33.6c0.3-10.3,11.4-17.1,24.3-16.3c7.1,0.4,15.9,2.8,20.6,6.8
						c4.4,3.9,0.4,8.2-3.2,8.8c-1.3,0.3-1.9-0.3-2-1.3c-0.5-7.5-7.1-12.8-15.4-13.1c-11-0.4-19.3,4-19.5,11
						c-0.7,17.9,36.2,16.5,44,33.7c5.8,12.8-6.8,23.8-27.2,23.1C265.3,465.5,256.4,462.3,252.3,455.6z"/>
					<path class="st0" d="M341.3,463.3l0.1,0.4l-0.3,0.4c-9.8,4.7-19.5-0.8-19.5-13v-47.6c0-3.3-3.2-4.7-4.7-4.7h-14.2V398h14.3
						c3.7-0.4,8.3-7.2,11.9-12.7V398h9.2v0.8H329v50c0,8.2,2.5,15.2,11.9,14.4H341.3z"/>
					<g>
						<g>
							<path class="st0" d="M158,386.3L158,386.3L158,386.3c-1.5-4.7-5.1-8.4-9.8-9.8h0l0,0c4.7-1.5,8.4-5.1,9.8-9.8v0v0
								c1.5,4.7,5.1,8.4,9.8,9.8v0l0,0C163.2,377.9,159.5,381.6,158,386.3z"/>
						</g>
					</g>
				</g>
			</g>
		</g>
		<g>
			<g>
				<path class="st0" d="M574.2,275.6c-7.3,7.7-16,14.3-25.4,19.3c-9,4.8-18.7,8.2-28.7,10.1c-9.9,1.9-20,2.3-30,1.2
					c-10.1-1.1-20-3.7-29.4-7.7c-9.6-4.2-18.6-9.8-26.5-16.7c-8-7-14.9-15.2-20.4-24.3c-5.3-8.8-9.2-18.3-11.6-28.2
					c-2.4-9.8-3.3-19.9-2.7-29.9c0.6-10.1,2.7-20.1,6.2-29.6c3.6-9.8,8.8-18.9,15.2-27.1c3.6-4.6,7.1-8.3,11.5-12.1
					c3.9-3.4,8.1-6.6,12.6-9.4c8.7-5.5,18.1-9.6,28-12.2c9.7-2.6,19.8-3.7,29.8-3.4c10.1,0.4,20.2,2.2,29.7,5.6
					c9.8,3.4,19.1,8.3,27.4,14.6c8.5,6.4,16.1,14.1,22.3,22.9c5.9,8.4,10.6,17.7,13.7,27.5c3.1,9.6,4.7,19.6,4.8,29.6
					c0.1,10.1-1.2,20.2-4.1,29.9c-2.9,9.9-7.3,19.4-13,27.9c-3,4.4-6.3,8.6-9.9,12.5c-0.1,0.1-0.6,0.7-0.6,0.7
					C573,276.7,574.1,275.8,574.2,275.6c7.3-7.7,13.5-16.4,18.1-26c4.5-9.3,7.6-19.4,9.1-29.6c1.5-10.1,1.4-20.5-0.2-30.7
					c-1.6-10.2-4.8-20.2-9.4-29.4c-4.8-9.6-11-18.3-18.5-25.9c-7.6-7.7-16.4-14.2-26-19.1c-9.2-4.8-19.2-8.1-29.4-9.8
					c-10.1-1.7-20.5-1.9-30.7-0.5c-10.2,1.4-20.2,4.3-29.6,8.7c-9.6,4.5-18.4,10.5-26.1,17.7c-7.8,7.3-14.7,15.6-20.1,24.8
					c-5.3,9-9.2,18.8-11.5,29c-2.3,10-3,20.4-2.2,30.6c0.8,10.3,3.2,20.4,7.1,29.9c4,9.8,9.5,18.9,16.2,27
					c7,8.3,15.3,15.5,24.5,21.3c8.9,5.5,18.6,9.6,28.8,12.1c10,2.5,20.3,3.4,30.6,2.8c10.3-0.6,20.4-2.8,30.1-6.4
					c9.8-3.7,19.1-9,27.3-15.6c4-3.2,7.7-6.7,11.3-10.5c0.1-0.1,1-1.2,1.1-1.2C574.8,275,574.3,275.5,574.2,275.6z"/>
			</g>
		</g>
		<g>
			<g>
				<g>
					<path class="st0" d="M562.4,228.7c-1.3-3.6-3.9-6.1-7.2-9.4c-2.5-2.5-6.6-5.4-9-6.4C536.1,198.2,522,193.5,517,196
						c-6.6,3.3,3,26.2,9.6,34.8c5.9,7.8,16.3,14.9,14.8,36.5c-0.1,1.1-1.2,1.8-2.2,1.4c-5.9-2.1-19.6-5.9-21.2-5.7
						c-0.1,0.7,2.3,5.6,4.6,12.2c-6.2,2.3-9.1,16.1-11.4,22.3c0.6-1,2-1.8,2.9-2.5c2.1-1.7,4.2-3.3,6.3-4.9c5-3.8,10-7.6,15-11.4
						c3.5-2.6,7.4-4.9,10.5-8.1c2.2-2.3,4.1-5,5.6-7.9c3.8-7.2,5.4-15.5,4.7-23.6c-0.3-3.2-0.9-6.3-1.8-9.3
						c-1.3-4.3-2.9-8.2-4.8-11.7C555,223.8,562.9,230.2,562.4,228.7z"/>
				</g>
				<g>
					<path class="st0" d="M458.7,145.1c0.1-1.1,1.2-1.8,2.2-1.4c5.9,2.1,19.6,5.9,21.2,5.7c0.1-0.7-2.3-5.6-4.6-12.2
						c6.2-2.3,9.1-16.1,11.4-22.3c-0.6,1-2,1.8-2.9,2.5c-2.1,1.7-4.2,3.3-6.3,4.9c-5,3.8-10,7.6-15,11.4c-3.5,2.6-7.4,4.9-10.5,8.1
						c-2.2,2.3-4.1,5-5.6,7.9c-3.8,7.2-5.4,15.5-4.7,23.6c0.3,3.2,0.9,6.3,1.8,9.3c1.3,4.3,2.9,8.2,4.8,11.7
						c-5.6-5.6-13.5-12-13-10.5c1.3,3.6,3.9,6.1,7.2,9.4c2.5,2.5,6.6,5.4,9,6.4c10.1,14.7,24.2,19.4,29.2,16.9
						c6.6-3.3-3-26.2-9.6-34.8C467.5,173.8,457.1,166.7,458.7,145.1z"/>
				</g>
				<g>
					<path class="st0" d="M500,209.1L500,209.1L500,209.1c-1-3.3-3.6-5.8-6.8-6.8h0h0c3.3-1,5.8-3.6,6.8-6.8l0,0l0,0
						c1,3.3,3.6,5.8,6.8,6.8h0h0C503.6,203.2,501,205.8,500,209.1z"/>
				</g>
			</g>
		</g>
	</g>
</g>
</svg>
